<svg width="681" height="564" viewBox="0 0 681 564" fill="none" xmlns="http://www.w3.org/2000/svg">
<path d="M424.24 554.567H255.274L261.002 480.069H418.512L424.24 554.567Z" fill="#E6E6E6"/>
<path d="M435.695 545.972H246.683V563.164H435.695V545.972Z" fill="#E6E6E6"/>
<path d="M663.368 0.116211H17.5771C13.0199 0.116211 8.64939 1.92757 5.42697 5.15175C2.20455 8.37593 0.394226 12.7488 0.394226 17.3085V411.299H680.551V17.3085C680.551 15.0508 680.107 12.8152 679.244 10.7293C678.38 8.64344 677.114 6.7482 675.519 5.15175C673.923 3.5553 672.029 2.28891 669.944 1.42491C667.859 0.560915 665.625 0.116213 663.368 0.116211Z" fill="#3F3D56"/>
<path d="M0.394226 411.299V475.77C0.394226 478.028 0.838688 480.263 1.70221 482.349C2.56573 484.435 3.83139 486.33 5.42697 487.927C7.02255 489.523 8.9168 490.79 11.0015 491.654C13.0863 492.518 15.3206 492.962 17.5771 492.962H663.368C667.926 492.962 672.296 491.151 675.519 487.927C678.741 484.703 680.551 480.33 680.551 475.77V411.299H0.394226Z" fill="#E6E6E6"/>
<path d="M647.617 35.9336H34.76V379.78H647.617V35.9336Z" fill="#E6E6E6"/>
<path d="M341.189 468.607C350.679 468.607 358.372 460.91 358.372 451.414C358.372 441.919 350.679 434.222 341.189 434.222C331.699 434.222 324.006 441.919 324.006 451.414C324.006 460.91 331.699 468.607 341.189 468.607Z" fill="#3F3D56"/>
<path d="M53.8691 50.4567C55.67 50.4567 57.13 48.996 57.13 47.1941C57.13 45.3922 55.67 43.9314 53.8691 43.9314C52.0682 43.9314 50.6082 45.3922 50.6082 47.1941C50.6082 48.996 52.0682 50.4567 53.8691 50.4567Z" fill="white"/>
<path d="M66.2466 50.4567C68.0475 50.4567 69.5075 48.996 69.5075 47.1941C69.5075 45.3922 68.0475 43.9314 66.2466 43.9314C64.4457 43.9314 62.9857 45.3922 62.9857 47.1941C62.9857 48.996 64.4457 50.4567 66.2466 50.4567Z" fill="white"/>
<path d="M78.6241 50.4567C80.425 50.4567 81.885 48.996 81.885 47.1941C81.885 45.3922 80.425 43.9314 78.6241 43.9314C76.8231 43.9314 75.3632 45.3922 75.3632 47.1941C75.3632 48.996 76.8231 50.4567 78.6241 50.4567Z" fill="white"/>
<path d="M629.954 58.2805H50.6082V347.055H629.954V58.2805Z" fill="white"/>
<path d="M89.1193 102.205C88.5763 102.205 88.0556 102.421 87.6716 102.805C87.2877 103.19 87.0717 103.71 87.0712 104.254V207.836C87.0717 208.38 87.2877 208.901 87.6716 209.285C88.0556 209.669 88.5763 209.885 89.1193 209.885H208.675C209.218 209.885 209.739 209.669 210.123 209.285C210.507 208.901 210.723 208.38 210.723 207.836V104.254C210.723 103.71 210.507 103.19 210.123 102.805C209.739 102.421 209.218 102.205 208.675 102.205H89.1193Z" fill="#E6E6E6"/>
<path d="M281.081 102.538C280.538 102.538 280.017 102.754 279.633 103.138C279.249 103.523 279.033 104.044 279.032 104.587V207.836C279.033 208.38 279.249 208.901 279.633 209.285C280.017 209.669 280.538 209.885 281.081 209.886H400.256C400.799 209.885 401.319 209.669 401.703 209.285C402.087 208.9 402.303 208.38 402.303 207.836V104.587C402.303 104.044 402.087 103.523 401.703 103.139C401.319 102.755 400.799 102.539 400.256 102.538H281.081Z" fill="#E6E6E6"/>
<path d="M471.03 101.456C470.487 101.456 469.967 101.672 469.583 102.057C469.199 102.441 468.983 102.962 468.983 103.505V207.836C468.983 208.38 469.199 208.9 469.583 209.285C469.967 209.669 470.487 209.885 471.03 209.886H591.444C591.987 209.885 592.507 209.669 592.891 209.285C593.275 208.9 593.491 208.38 593.491 207.836V103.505C593.491 102.962 593.275 102.441 592.891 102.057C592.507 101.672 591.987 101.456 591.444 101.456H471.03Z" fill="#E6E6E6"/>
<path d="M91.3051 261.159C90.1835 261.161 89.1085 261.608 88.3161 262.402C87.5237 263.197 87.0787 264.273 87.0787 265.395C87.0787 266.518 87.5237 267.594 88.3161 268.388C89.1085 269.183 90.1835 269.63 91.3051 269.632H203.711C204.833 269.63 205.908 269.183 206.7 268.388C207.493 267.594 207.938 266.518 207.938 265.395C207.938 264.273 207.493 263.197 206.7 262.402C205.908 261.608 204.833 261.161 203.711 261.159H91.3051Z" fill="#E6E6E6"/>
<path d="M91.3051 281.311C90.1834 281.313 89.1083 281.76 88.3158 282.555C87.5234 283.349 87.0783 284.426 87.0783 285.548C87.0783 286.67 87.5234 287.747 88.3158 288.541C89.1083 289.336 90.1834 289.783 91.3051 289.785H141.915C143.037 289.783 144.112 289.336 144.905 288.541C145.697 287.747 146.142 286.67 146.142 285.548C146.142 284.426 145.697 283.349 144.905 282.555C144.112 281.76 143.037 281.313 141.915 281.311H91.3051Z" fill="#6C63FF"/>
<path d="M285.33 261.159C284.208 261.161 283.133 261.608 282.341 262.402C281.548 263.197 281.103 264.273 281.103 265.395C281.103 266.518 281.548 267.594 282.341 268.388C283.133 269.183 284.208 269.63 285.33 269.632H397.736C398.857 269.63 399.932 269.183 400.725 268.388C401.517 267.594 401.962 266.518 401.962 265.395C401.962 264.273 401.517 263.197 400.725 262.402C399.932 261.608 398.857 261.161 397.736 261.159H285.33Z" fill="#E6E6E6"/>
<path d="M285.33 281.311C284.208 281.313 283.133 281.76 282.34 282.555C281.548 283.349 281.103 284.426 281.103 285.548C281.103 286.67 281.548 287.747 282.34 288.541C283.133 289.336 284.208 289.783 285.33 289.785H335.941C337.062 289.783 338.137 289.336 338.93 288.541C339.722 287.747 340.167 286.67 340.167 285.548C340.167 284.426 339.722 283.349 338.93 282.555C338.137 281.76 337.062 281.313 335.941 281.311H285.33Z" fill="#6C63FF"/>
<path d="M474.505 261.159C473.383 261.161 472.308 261.608 471.516 262.402C470.724 263.197 470.279 264.273 470.279 265.395C470.279 266.518 470.724 267.594 471.516 268.388C472.308 269.183 473.383 269.63 474.505 269.632H586.911C588.033 269.63 589.108 269.183 589.9 268.388C590.693 267.594 591.138 266.518 591.138 265.395C591.138 264.273 590.693 263.197 589.9 262.402C589.108 261.608 588.033 261.161 586.911 261.159H474.505Z" fill="#E6E6E6"/>
<path d="M91.3051 240.346C90.1835 240.348 89.1085 240.795 88.3161 241.589C87.5237 242.384 87.0787 243.46 87.0787 244.582C87.0787 245.705 87.5237 246.781 88.3161 247.575C89.1085 248.37 90.1835 248.817 91.3051 248.819H203.711C204.833 248.817 205.908 248.37 206.7 247.575C207.493 246.781 207.938 245.705 207.938 244.582C207.938 243.46 207.493 242.384 206.7 241.589C205.908 240.795 204.833 240.348 203.711 240.346H91.3051Z" fill="#E6E6E6"/>
<path d="M285.33 240.346C284.208 240.348 283.133 240.795 282.341 241.589C281.548 242.384 281.103 243.46 281.103 244.582C281.103 245.705 281.548 246.781 282.341 247.575C283.133 248.37 284.208 248.817 285.33 248.819H397.736C398.857 248.817 399.932 248.37 400.725 247.575C401.517 246.781 401.962 245.705 401.962 244.582C401.962 243.46 401.517 242.384 400.725 241.589C399.932 240.795 398.857 240.348 397.736 240.346H285.33Z" fill="#E6E6E6"/>
<path d="M474.505 240.346C473.383 240.348 472.308 240.795 471.516 241.589C470.724 242.384 470.279 243.46 470.279 244.582C470.279 245.705 470.724 246.781 471.516 247.575C472.308 248.37 473.383 248.817 474.505 248.819H586.911C588.033 248.817 589.108 248.37 589.9 247.575C590.693 246.781 591.138 245.705 591.138 244.582C591.138 243.46 590.693 242.384 589.9 241.589C589.108 240.795 588.033 240.348 586.911 240.346H474.505Z" fill="#E6E6E6"/>
<path d="M474.505 281.311C473.383 281.313 472.308 281.76 471.516 282.555C470.723 283.349 470.278 284.426 470.278 285.548C470.278 286.67 470.723 287.747 471.516 288.541C472.308 289.336 473.383 289.783 474.505 289.785H525.115C526.236 289.783 527.311 289.336 528.104 288.541C528.896 287.747 529.341 286.67 529.341 285.548C529.341 284.426 528.896 283.349 528.104 282.555C527.311 281.76 526.236 281.313 525.115 281.311H474.505Z" fill="#6C63FF"/>
</svg>
