<svg width="87" height="87" viewBox="0 0 87 87" fill="none" xmlns="http://www.w3.org/2000/svg">
<path d="M80.7857 0.1875H6.19487C2.77701 0.1875 0 2.99121 0 6.43301V80.567C0 84.0088 2.77701 86.8125 6.19487 86.8125H80.7857C84.2036 86.8125 87 84.0088 87 80.567V6.43301C87 2.99121 84.2036 0.1875 80.7857 0.1875ZM26.2942 74.4375H13.3996V33.0973H26.3136V74.4375H26.2942ZM19.8469 27.4512C15.7105 27.4512 12.3703 24.1061 12.3703 20.0068C12.3703 15.9076 15.7105 12.5625 19.8469 12.5625C23.9638 12.5625 27.3234 15.9076 27.3234 20.0068C27.3234 24.1254 23.9833 27.4512 19.8469 27.4512ZM74.6297 74.4375H61.735V54.3281C61.735 49.5328 61.6379 43.3647 55.0353 43.3647C48.3161 43.3647 47.2868 48.5854 47.2868 53.9801V74.4375H34.3922V33.0973H46.7625V38.7434H46.9373C48.6656 35.4949 52.8797 32.0725 59.1522 32.0725C72.2022 32.0725 74.6297 40.6383 74.6297 51.7758V74.4375Z" fill="black"/>
</svg>
