<svg width="135" height="182" viewBox="0 0 135 182" fill="none" xmlns="http://www.w3.org/2000/svg">
<path d="M130.043 35.6074L100.547 5.94746C97.3828 2.76582 93.0938 0.962891 88.6289 0.962891H16.875C7.55859 0.998242 0 8.59883 0 17.967V165.029C0 174.398 7.55859 181.998 16.875 181.998H118.125C127.441 181.998 135 174.398 135 165.029V47.6269C135 43.1373 133.207 38.7891 130.043 35.6074ZM116.754 46.2482H90V19.3457L116.754 46.2482ZM16.875 165.029V17.967H73.125V54.7326C73.125 59.4344 76.8867 63.217 81.5625 63.217H118.125V165.029H16.875Z" fill="black"/>
<path d="M30.7852 103.097H26.7773V110H24.5156V92.9372H30.1641C32.0859 92.9372 33.5625 93.3747 34.5938 94.2497C35.6328 95.1247 36.1523 96.3982 36.1523 98.0701C36.1523 99.1326 35.8633 100.058 35.2852 100.847C34.7148 101.636 33.918 102.226 32.8945 102.617L36.9023 109.859V110H34.4883L30.7852 103.097ZM26.7773 101.258H30.2344C31.3516 101.258 32.2383 100.968 32.8945 100.39C33.5586 99.8122 33.8906 99.0388 33.8906 98.0701C33.8906 97.0154 33.5742 96.2068 32.9414 95.6443C32.3164 95.0818 31.4102 94.7966 30.2227 94.7888H26.7773V101.258Z" fill="black"/>
<path d="M44.2383 110.234C42.5195 110.234 41.1211 109.672 40.043 108.547C38.9648 107.414 38.4258 105.902 38.4258 104.011V103.613C38.4258 102.355 38.6641 101.234 39.1406 100.25C39.625 99.2576 40.2969 98.4841 41.1562 97.9294C42.0234 97.3669 42.9609 97.0857 43.9688 97.0857C45.6172 97.0857 46.8984 97.6287 47.8125 98.7146C48.7266 99.8005 49.1836 101.355 49.1836 103.379V104.281H40.5938C40.625 105.531 40.9883 106.543 41.6836 107.316C42.3867 108.082 43.2773 108.465 44.3555 108.465C45.1211 108.465 45.7695 108.308 46.3008 107.996C46.832 107.683 47.2969 107.269 47.6953 106.754L49.0195 107.785C47.957 109.418 46.3633 110.234 44.2383 110.234ZM43.9688 98.8669C43.0938 98.8669 42.3594 99.1872 41.7656 99.8279C41.1719 100.461 40.8047 101.351 40.6641 102.5H47.0156V102.336C46.9531 101.234 46.6562 100.383 46.125 99.781C45.5938 99.1716 44.875 98.8669 43.9688 98.8669Z" fill="black"/>
<path d="M59.0859 106.636C59.0859 106.051 58.8633 105.597 58.418 105.277C57.9805 104.949 57.2109 104.668 56.1094 104.433C55.0156 104.199 54.1445 103.918 53.4961 103.59C52.8555 103.261 52.3789 102.871 52.0664 102.418C51.7617 101.965 51.6094 101.426 51.6094 100.801C51.6094 99.7615 52.0469 98.8826 52.9219 98.1638C53.8047 97.4451 54.9297 97.0857 56.2969 97.0857C57.7344 97.0857 58.8984 97.4568 59.7891 98.199C60.6875 98.9412 61.1367 99.8904 61.1367 101.047H58.957C58.957 100.453 58.7031 99.9412 58.1953 99.5115C57.6953 99.0818 57.0625 98.8669 56.2969 98.8669C55.5078 98.8669 54.8906 99.0388 54.4453 99.3826C54 99.7263 53.7773 100.176 53.7773 100.73C53.7773 101.254 53.9844 101.648 54.3984 101.914C54.8125 102.179 55.5586 102.433 56.6367 102.676C57.7227 102.918 58.6016 103.207 59.2734 103.543C59.9453 103.879 60.4414 104.285 60.7617 104.761C61.0898 105.23 61.2539 105.804 61.2539 106.484C61.2539 107.617 60.8008 108.527 59.8945 109.215C58.9883 109.894 57.8125 110.234 56.3672 110.234C55.3516 110.234 54.4531 110.054 53.6719 109.695C52.8906 109.336 52.2773 108.836 51.832 108.195C51.3945 107.547 51.1758 106.847 51.1758 106.097H53.3438C53.3828 106.824 53.6719 107.402 54.2109 107.832C54.7578 108.254 55.4766 108.465 56.3672 108.465C57.1875 108.465 57.8438 108.301 58.3359 107.972C58.8359 107.636 59.0859 107.191 59.0859 106.636Z" fill="black"/>
<path d="M71.9062 108.746C71.0625 109.738 69.8242 110.234 68.1914 110.234C66.8398 110.234 65.8086 109.843 65.0977 109.062C64.3945 108.273 64.0391 107.109 64.0312 105.57V97.3201H66.1992V105.511C66.1992 107.433 66.9805 108.394 68.543 108.394C70.1992 108.394 71.3008 107.777 71.8477 106.543V97.3201H74.0156V110H71.9531L71.9062 108.746Z" fill="black"/>
<path d="M79.3594 97.3201L79.418 98.7263C80.3477 97.6326 81.6016 97.0857 83.1797 97.0857C84.9531 97.0857 86.1602 97.7654 86.8008 99.1247C87.2227 98.5154 87.7695 98.0232 88.4414 97.6482C89.1211 97.2732 89.9219 97.0857 90.8438 97.0857C93.625 97.0857 95.0391 98.5583 95.0859 101.504V110H92.918V101.633C92.918 100.726 92.7109 100.051 92.2969 99.6052C91.8828 99.1521 91.1875 98.9255 90.2109 98.9255C89.4062 98.9255 88.7383 99.1677 88.207 99.6521C87.6758 100.129 87.3672 100.773 87.2812 101.586V110H85.1016V101.691C85.1016 99.8474 84.1992 98.9255 82.3945 98.9255C80.9727 98.9255 80 99.531 79.4766 100.742V110H77.3086V97.3201H79.3594Z" fill="black"/>
<path d="M103.629 110.234C101.91 110.234 100.512 109.672 99.4336 108.547C98.3555 107.414 97.8164 105.902 97.8164 104.011V103.613C97.8164 102.355 98.0547 101.234 98.5312 100.25C99.0156 99.2576 99.6875 98.4841 100.547 97.9294C101.414 97.3669 102.352 97.0857 103.359 97.0857C105.008 97.0857 106.289 97.6287 107.203 98.7146C108.117 99.8005 108.574 101.355 108.574 103.379V104.281H99.9844C100.016 105.531 100.379 106.543 101.074 107.316C101.777 108.082 102.668 108.465 103.746 108.465C104.512 108.465 105.16 108.308 105.691 107.996C106.223 107.683 106.688 107.269 107.086 106.754L108.41 107.785C107.348 109.418 105.754 110.234 103.629 110.234ZM103.359 98.8669C102.484 98.8669 101.75 99.1872 101.156 99.8279C100.562 100.461 100.195 101.351 100.055 102.5H106.406V102.336C106.344 101.234 106.047 100.383 105.516 99.781C104.984 99.1716 104.266 98.8669 103.359 98.8669Z" fill="black"/>
</svg>
