<svg width="226" height="158" viewBox="0 0 226 158" fill="none" xmlns="http://www.w3.org/2000/svg">
<path d="M123.027 71.7562H99.7888V50.8932H123.027V71.7562ZM123.027 0H99.7888V21.3196H123.027V0ZM150.519 50.858H127.281V71.7211H150.519V50.858ZM95.57 25.5344H72.3317V46.6433H95.57V25.5344ZM123.027 25.5344H99.7888V46.6433H123.027V25.5344ZM220.34 60.6574C215.277 57.2504 203.605 56.0211 194.64 57.707C193.48 49.2775 188.769 41.9368 180.191 35.3337L175.269 32.0673L172 36.9845C165.531 46.7487 163.773 62.835 170.699 73.4421C167.64 75.0929 161.629 77.3408 153.683 77.2003H0.859074C-2.19952 95.0427 2.89814 118.224 16.3278 134.135C29.3708 149.554 48.9177 157.386 74.4763 157.386C129.812 157.386 170.769 131.922 189.929 85.6649C197.453 85.8054 213.695 85.7 222.027 69.7893C222.554 68.9112 224.347 65.1531 225.015 63.7833L220.34 60.6574ZM17.4528 50.858V71.7211H40.6911V50.858H17.4528ZM68.113 50.858H44.8747V71.7211H68.113V50.858ZM95.57 50.858H72.3317V71.7211H95.57V50.858ZM68.113 25.5344H44.8747V46.6433H68.113V25.5344Z" fill="black"/>
</svg>
