<svg width="225" height="225" viewBox="0 0 225 225" fill="none" xmlns="http://www.w3.org/2000/svg">
<path d="M0 0V225H225V0H0ZM122.444 175.48C122.444 197.377 109.587 207.372 90.8538 207.372C73.9286 207.372 64.135 198.633 59.1127 188.036L76.3393 177.64C79.654 183.516 82.6674 188.488 89.9498 188.488C96.8806 188.488 101.3 185.776 101.3 175.179V103.309H122.444V175.48ZM172.467 207.372C152.829 207.372 140.123 198.03 133.945 185.776L151.172 175.831C155.692 183.214 161.618 188.689 172.015 188.689C180.753 188.689 186.378 184.319 186.378 178.242C186.378 171.01 180.653 168.449 170.96 164.18L165.686 161.92C150.419 155.441 140.324 147.254 140.324 130.028C140.324 114.157 152.427 102.104 171.261 102.104C184.721 102.104 194.364 106.775 201.295 119.029L184.821 129.576C181.205 123.097 177.288 120.536 171.211 120.536C165.033 120.536 161.116 124.453 161.116 129.576C161.116 135.904 165.033 138.465 174.124 142.433L179.397 144.693C197.377 152.377 207.472 160.262 207.472 177.941C207.472 196.925 192.506 207.372 172.467 207.372Z" fill="black"/>
</svg>
