<svg width="226" height="226" viewBox="0 0 226 226" fill="none" xmlns="http://www.w3.org/2000/svg">
<path d="M220.882 84.7955C217.015 69.2614 209.682 57.548 194.063 57.548H173.923V81.377C173.923 99.8771 158.253 115.461 140.374 115.461H86.7355C72.0703 115.461 59.9163 128.029 59.9163 142.759V193.936C59.9163 208.515 72.5725 217.061 86.7355 221.234C103.711 226.211 120.034 227.116 140.374 221.234C153.884 217.313 167.193 209.42 167.193 193.936V173.475H113.605V166.638H194.063C209.682 166.638 215.458 155.729 220.882 139.391C226.507 122.55 226.256 106.362 220.882 84.7955ZM143.739 187.099C149.314 187.099 153.834 191.674 153.834 197.304C153.834 202.985 149.314 207.56 143.739 207.56C138.214 207.56 133.644 202.935 133.644 197.304C133.694 191.624 138.214 187.099 143.739 187.099ZM84.2746 108.725H137.913C152.829 108.725 164.732 96.4084 164.732 81.4273V30.2C164.732 15.6211 152.478 4.71211 137.913 2.24877C119.933 -0.717278 100.396 -0.566461 84.2746 2.29905C61.5737 6.32081 57.4554 14.7162 57.4554 30.2503V50.711H111.144V57.548H37.3159C21.6964 57.548 8.03572 66.9489 3.76675 84.7955C-1.15512 105.256 -1.35602 118.025 3.76675 139.391C7.58372 155.277 16.6741 166.638 32.2935 166.638H50.7255V142.106C50.7255 124.36 66.0435 108.725 84.2746 108.725ZM80.9096 37.037C75.3348 37.037 70.8147 32.4623 70.8147 26.8318C70.865 21.1511 75.3348 16.5763 80.9096 16.5763C86.4342 16.5763 91.0045 21.2013 91.0045 26.8318C91.0045 32.4623 86.4844 37.037 80.9096 37.037Z" fill="black"/>
</svg>
