<svg width="225" height="197" viewBox="0 0 225 197" fill="none" xmlns="http://www.w3.org/2000/svg">
<path d="M183.779 63.8712C181.406 63.0802 179.033 62.3331 176.66 61.63C177.056 60.004 177.407 58.3781 177.759 56.7521C183.164 30.5607 179.604 9.51086 167.607 2.5675C156.05 -4.06824 137.197 2.83117 118.125 19.4425C116.235 21.0685 114.39 22.7823 112.632 24.4962C111.445 23.3536 110.215 22.2111 108.984 21.1124C88.9893 3.35852 68.9502 -4.11219 56.9531 2.87512C45.4395 9.55481 42.0117 29.3741 46.8457 54.1593C47.3291 56.6202 47.8564 59.0372 48.4717 61.4982C45.6592 62.2892 42.8906 63.1681 40.2979 64.0909C16.8311 72.2208 0 85.0529 0 98.3243C0 112.035 17.9297 125.79 42.3193 134.14C44.2969 134.799 46.2744 135.458 48.2959 136.029C47.6367 138.666 47.0654 141.259 46.5381 143.94C41.9238 168.329 45.5273 187.665 57.041 194.301C68.9062 201.156 88.8574 194.125 108.281 177.118C109.819 175.756 111.357 174.35 112.896 172.856C114.829 174.745 116.851 176.547 118.872 178.305C137.681 194.477 156.27 201.025 167.739 194.389C179.604 187.533 183.472 166.747 178.462 141.435C178.066 139.501 177.627 137.524 177.144 135.502C178.55 135.107 179.912 134.667 181.274 134.228C206.631 125.834 225 112.255 225 98.3243C225 85.0089 207.686 72.089 183.779 63.8712ZM124.321 26.5616C140.669 12.3234 155.918 6.74231 162.861 10.7413C170.288 15.004 173.145 32.2306 168.486 54.8624C168.179 56.3566 167.871 57.8068 167.476 59.257C157.72 57.0597 147.832 55.4777 137.9 54.5988C132.188 46.4249 125.947 38.6027 119.18 31.2638C120.894 29.6378 122.563 28.0997 124.321 26.5616ZM73.4766 121.132C75.7178 124.955 78.0029 128.778 80.4199 132.514C73.5645 131.767 66.7529 130.668 60.0293 129.218C61.9629 122.89 64.3799 116.342 67.1924 109.662C69.2139 113.529 71.2793 117.353 73.4766 121.132ZM60.1611 68.2657C66.4893 66.8595 73.2129 65.7169 80.2002 64.838C77.8711 68.4855 75.5859 72.2208 73.4326 76.0001C71.2793 79.7355 69.1699 83.5587 67.1924 87.4259C64.4238 80.8781 62.0947 74.462 60.1611 68.2657ZM72.2021 98.5441C75.1025 92.4796 78.2666 86.547 81.6064 80.7023C84.9463 74.8576 88.5498 69.1886 92.3291 63.6076C98.9209 63.1242 105.645 62.8605 112.5 62.8605C119.355 62.8605 126.123 63.1242 132.671 63.6076C136.406 69.1447 139.966 74.8136 143.35 80.6144C146.733 86.4152 149.897 92.3478 152.886 98.3683C149.941 104.433 146.777 110.409 143.394 116.298C140.054 122.143 136.494 127.812 132.759 133.437C126.211 133.92 119.399 134.14 112.5 134.14C105.601 134.14 98.9209 133.92 92.4609 133.525C88.6377 127.943 85.0342 122.231 81.6504 116.386C78.2666 110.541 75.1465 104.609 72.2021 98.5441ZM151.567 121.044C153.809 117.177 155.918 113.266 157.983 109.311C160.796 115.683 163.257 122.143 165.41 128.778C158.599 130.317 151.699 131.503 144.756 132.294C147.129 128.603 149.37 124.823 151.567 121.044ZM157.896 87.4259C155.83 83.5587 153.721 79.6915 151.523 75.9122C149.37 72.1769 147.129 68.4855 144.8 64.838C151.875 65.7169 158.643 66.9034 164.971 68.3536C162.949 74.8575 160.576 81.1857 157.896 87.4259ZM112.588 37.9874C117.202 42.9972 121.553 48.2706 125.596 53.7199C116.895 53.3243 108.149 53.3243 99.4482 53.7199C103.755 48.0509 108.193 42.7775 112.588 37.9874ZM61.6113 11.0489C68.9941 6.74231 85.3857 12.8947 102.656 28.1876C103.755 29.1544 104.854 30.2091 105.996 31.2638C99.1846 38.6027 92.9004 46.4249 87.1436 54.5988C77.2119 55.4777 67.3682 57.0158 57.6123 59.1691C57.041 56.9279 56.5576 54.6427 56.0742 52.3575C51.9434 31.088 54.668 15.048 61.6113 11.0489ZM50.8447 126.889C48.999 126.361 47.1973 125.79 45.3955 125.175C36.0352 122.231 25.4004 117.572 17.71 111.464C13.2715 108.388 10.2832 103.642 9.44824 98.3243C9.44824 90.2824 23.335 79.9992 43.374 73.0118C45.8789 72.1329 48.4277 71.3419 50.9766 70.5949C53.9648 80.131 57.5684 89.4913 61.7432 98.5441C57.5244 107.729 53.877 117.221 50.8447 126.889ZM102.085 169.955C94.834 176.591 86.4404 181.864 77.2998 185.468C72.4219 187.797 66.7969 188.017 61.7871 186.039C54.7998 181.996 51.8994 166.484 55.8545 145.61C56.3379 143.149 56.8652 140.688 57.4805 138.271C67.3242 140.38 77.2559 141.83 87.3193 142.577C93.1201 150.795 99.4922 158.661 106.304 166.044C104.897 167.406 103.491 168.725 102.085 169.955ZM112.852 159.277C108.369 154.443 103.887 149.081 99.5361 143.324C103.755 143.5 108.105 143.588 112.5 143.588C117.026 143.588 121.465 143.5 125.859 143.28C121.816 148.861 117.466 154.179 112.852 159.277ZM170.288 172.46C169.893 177.821 167.256 182.831 163.037 186.215C156.05 190.258 141.152 184.985 125.068 171.186C123.223 169.604 121.377 167.89 119.487 166.132C126.211 158.705 132.407 150.839 138.032 142.577C148.096 141.742 158.115 140.204 168.003 137.963C168.442 139.765 168.838 141.567 169.189 143.324C171.343 152.817 171.694 162.704 170.288 172.46ZM178.286 125.219C177.056 125.614 175.825 126.01 174.551 126.361C171.475 116.781 167.695 107.421 163.345 98.3243C167.563 89.3595 171.123 80.131 174.111 70.6827C176.396 71.3419 178.594 72.045 180.703 72.7482C201.182 79.7794 215.552 90.2384 215.552 98.2365C215.552 106.85 200.215 117.968 178.286 125.219ZM112.5 118.627C123.618 118.627 132.627 109.618 132.627 98.5001C132.627 87.382 123.618 78.3732 112.5 78.3732C101.382 78.3732 92.373 87.382 92.373 98.5001C92.373 109.618 101.382 118.627 112.5 118.627Z" fill="black"/>
</svg>
