<svg width="225" height="138" viewBox="0 0 225 138" fill="none" xmlns="http://www.w3.org/2000/svg">
<path d="M111.199 137.769C110.461 137.769 109.723 137.558 109.055 137.207L102.305 133.202C101.285 132.64 101.777 132.43 102.129 132.324C103.465 131.868 103.746 131.762 105.188 130.919C105.328 130.849 105.539 130.884 105.68 130.954L110.883 134.045C111.059 134.151 111.34 134.151 111.516 134.045L131.836 122.313C132.012 122.208 132.152 121.997 132.152 121.751V98.3224C132.152 98.0766 132.047 97.8658 131.836 97.7604L111.516 86.0635C111.34 85.9581 111.094 85.9581 110.883 86.0635L90.5625 97.7604C90.3516 97.8658 90.2461 98.1117 90.2461 98.3224V121.751C90.2461 121.962 90.3867 122.173 90.5625 122.278L96.1172 125.475C99.1406 126.985 101.004 125.194 101.004 123.437V100.289C101.004 99.9734 101.25 99.6923 101.602 99.6923H104.168C104.484 99.6923 104.766 99.9382 104.766 100.289V123.437C104.766 127.477 102.586 129.76 98.7539 129.76C97.5938 129.76 96.6445 129.76 94.0781 128.496L88.7344 125.44C87.4336 124.667 86.5898 123.262 86.5898 121.751V98.3224C86.5898 96.812 87.3984 95.3719 88.7344 94.6342L109.055 82.9022C110.355 82.1646 112.043 82.1646 113.309 82.9022L133.629 94.6342C134.93 95.407 135.773 96.812 135.773 98.3224V121.751C135.773 123.262 134.965 124.702 133.629 125.44L113.309 137.172C112.711 137.558 111.973 137.769 111.199 137.769ZM127.617 114.656C127.617 110.265 124.664 109.106 118.406 108.263C112.078 107.42 111.445 106.999 111.445 105.523C111.445 104.294 111.973 102.678 116.648 102.678C120.832 102.678 122.379 103.591 123.012 106.401C123.082 106.682 123.293 106.858 123.574 106.858H126.211C126.387 106.858 126.527 106.788 126.633 106.682C126.738 106.542 126.809 106.401 126.773 106.226C126.352 101.378 123.152 99.1303 116.648 99.1303C110.848 99.1303 107.402 101.589 107.402 105.664C107.402 110.125 110.848 111.319 116.402 111.881C123.047 112.548 123.574 113.497 123.574 114.796C123.574 117.08 121.746 118.028 117.457 118.028C112.078 118.028 110.883 116.693 110.496 114.024C110.461 113.743 110.215 113.532 109.898 113.532H107.262C106.945 113.532 106.664 113.778 106.664 114.129C106.664 117.536 108.527 121.611 117.422 121.611C123.926 121.611 127.617 119.082 127.617 114.656ZM146.777 97.0579C146.777 99.2006 145.02 100.957 142.875 100.957C140.73 100.957 138.973 99.2006 138.973 97.0579C138.973 94.845 140.801 93.1589 142.875 93.1589C144.984 93.1238 146.777 94.845 146.777 97.0579ZM146.145 97.0579C146.145 95.2314 144.668 93.7912 142.84 93.7912C141.047 93.7912 139.57 95.2314 139.57 97.0579C139.57 98.8845 141.047 100.36 142.84 100.36C144.668 100.325 146.145 98.8493 146.145 97.0579ZM144.562 99.2357H143.648C143.613 99.0249 143.473 97.9009 143.473 97.8658C143.402 97.6199 143.332 97.4794 143.016 97.4794H142.242V99.2357H141.398V94.845H142.91C143.438 94.845 144.457 94.845 144.457 96.0041C144.457 96.812 143.93 96.9877 143.613 97.093C144.211 97.1282 144.246 97.5145 144.352 98.0766C144.387 98.4278 144.457 99.0249 144.562 99.2357ZM143.578 96.1446C143.578 95.5475 143.156 95.5475 142.945 95.5475H142.242V96.7769H142.91C143.473 96.7769 143.578 96.3905 143.578 96.1446ZM48.2695 46.0903C48.2695 45.1419 47.7773 44.2989 46.9688 43.8423L25.418 31.4428C25.0664 31.2321 24.6445 31.1267 24.2227 31.0916H24.0117C23.5898 31.0916 23.2031 31.2321 22.8164 31.4428L1.30078 43.8423C0.492188 44.2989 0 45.177 0 46.0903L0.0351562 79.4599C0.0351562 79.9165 0.28125 80.338 0.667969 80.5839C1.05469 80.8298 1.54688 80.8298 1.96875 80.5839L14.7656 73.2426C15.5742 72.7508 16.0664 71.9078 16.0664 70.9945V55.3987C16.0664 54.4854 16.5586 53.6072 17.3672 53.1506L22.8164 50.0244C23.2383 49.7785 23.6602 49.6731 24.1172 49.6731C24.5742 49.6731 25.0313 49.7785 25.418 50.0244L30.8672 53.1506C31.6758 53.6072 32.168 54.4854 32.168 55.3987V70.9945C32.168 71.9078 32.6602 72.7859 33.4688 73.2426L46.2656 80.5839C46.6523 80.8298 47.1797 80.8298 47.5664 80.5839C47.9531 80.3731 48.1992 79.9165 48.1992 79.4599L48.2695 46.0903ZM166.113 9.66482V71.6268C166.113 72.5401 165.621 73.4182 164.812 73.8749L143.262 86.3094C142.453 86.766 141.469 86.766 140.66 86.3094L119.109 73.8749C118.301 73.4182 117.809 72.5401 117.809 71.6268V46.7577C117.809 45.8444 118.301 44.9663 119.109 44.5097L140.66 32.0751C141.469 31.6185 142.453 31.6185 143.262 32.0751L148.641 35.1662C149.238 35.5174 150.012 35.0608 150.012 34.3934V1.37512C150.012 0.391598 151.066 -0.240668 151.945 0.251094L164.777 7.41677C165.586 7.83828 166.113 8.71642 166.113 9.66482ZM149.941 54.942C149.941 54.6961 149.801 54.4854 149.625 54.38L142.242 50.0947C142.031 49.9893 141.785 49.9893 141.574 50.0947L134.191 54.38C133.98 54.4854 133.875 54.6961 133.875 54.942V63.4776C133.875 63.7235 134.016 63.9342 134.191 64.0396L141.574 68.2898C141.785 68.3952 142.031 68.3952 142.207 68.2898L149.59 64.0396C149.801 63.9342 149.906 63.7235 149.906 63.4776V54.942H149.941ZM223.699 54.6961C224.508 54.2395 225 53.3614 225 52.4481V46.4416C225 45.5283 224.508 44.6502 223.699 44.1935L202.289 31.759C201.48 31.3023 200.496 31.3023 199.688 31.759L178.137 44.1935C177.328 44.6502 176.836 45.5283 176.836 46.4416V71.3107C176.836 72.2591 177.328 73.1021 178.137 73.5587L199.547 85.7474C200.32 86.204 201.305 86.204 202.113 85.7474L215.051 78.5466C215.93 78.0548 215.93 76.7903 215.051 76.2985L193.359 63.864C192.938 63.6181 192.691 63.1966 192.691 62.74V54.942C192.691 54.4854 192.938 54.0639 193.359 53.818L200.109 49.919C200.496 49.6731 201.023 49.6731 201.41 49.919L208.16 53.818C208.547 54.0639 208.828 54.4854 208.828 54.942V61.0539C208.828 62.0374 209.918 62.6697 210.797 62.1779L223.699 54.6961ZM196.523 55.9255C196.383 56.0309 196.277 56.1714 196.277 56.3471V61.1242C196.277 61.2998 196.383 61.4754 196.523 61.5457L200.672 63.9342C200.812 64.0396 201.023 64.0396 201.164 63.9342L205.312 61.5457C205.453 61.4403 205.559 61.2998 205.559 61.1242V56.3471C205.559 56.1714 205.453 55.9958 205.312 55.9255L201.164 53.537C201.023 53.4316 200.812 53.4316 200.672 53.537L196.523 55.9255ZM107.156 71.2053V46.4767C107.156 45.5634 106.594 44.6853 105.785 44.2286L84.3047 31.8643C83.5664 31.4428 82.5469 31.3726 81.7031 31.8643L60.2227 44.2286C59.4141 44.6853 58.8516 45.5283 58.8516 46.4767V71.2053C58.8516 72.1888 59.5195 73.0318 60.2578 73.4533L81.7734 85.8176C82.6172 86.3094 83.6016 86.2743 84.375 85.8176L105.82 73.4533C106.453 73.1021 106.91 72.505 107.086 71.8024C107.121 71.6268 107.156 71.416 107.156 71.2053ZM81.0352 27.3331L80.7539 27.5087H81.1406L81.0352 27.3331ZM107.824 73.067L107.684 72.8211V73.1372L107.824 73.067Z" fill="black"/>
</svg>
